<?xml version="1.0" encoding="utf-8"?>
<!-- Generator: Adobe Illustrator 27.0.0, SVG Export Plug-In . SVG Version: 6.00 Build 0)  -->
<svg version="1.1" id="Layer_1" xmlns="http://www.w3.org/2000/svg" xmlns:xlink="http://www.w3.org/1999/xlink" x="0px" y="0px"
	 viewBox="0 0 105.1 108.6" style="enable-background:new 0 0 105.1 108.6;" xml:space="preserve">
<style type="text/css">
	.st0{fill:#FFFFFF;}
</style>
<path class="st0" d="M52.5,70.766v16.2c25.4-0.1,50.9-7.4,52.6-20.3v-16.6C102.8,64.066,77.7,70.966,52.5,70.766z"/>
<path class="st0" d="M52.5,92.4v16.2c25.3-0.5,50.8-8.338,52.6-21.238v-16.6C102.8,84.662,77.5,92.1,52.5,92.4z"/>
<path class="st0" d="M51.62,82.328c-5.091,0.316-7.642-3.89-7.642-3.89s0.374-0.332,0.807-1.17
	c-1.991-1.041-2.968-3.169-2.968-3.169c-1.793,5.063,0.25,10.414,2.447,12.743c2.521,2.603,6.975,5.55,11.83,2.344
	c-6.902,0.263-8.712-4.706-8.712-4.706S50.603,84.619,51.62,82.328z"/>
<path class="st0" d="M68.9,48.7c-3.4,7.1-11,11.8-16.3,14.4v2.3c25.4-0.1,50.8-7.2,52.5-19.8V29.3C103.3,40,87.6,46.4,68.9,48.7z"/>
<path class="st0" d="M42.9,92.2C37.5,82.1,24.6,75.5,21.4,71c-2-2.8-1.2-5.4,0.3-6.8c1.6-1.4,4.5-1.5,6.5,0c1.8,1.4,5.1,5,5.8,6.3
	s0.6,2.3,1,3.2c0.4,1,1.5,1.6,3.2,1.2c1.5-0.3,2.4-0.8,2.4-0.8S38.9,74,38.4,73c0,0-1.8-5-2.4-7c2.4,0.9,4,1.8,5,2.6
	c0,1.1-0.6,2.9-0.6,2.9c0.1,0,0.9-0.4,2.2-1.5c0.1,0.1,0.1,0.1,0.2,0.2c0.4,0.4-0.6,3-0.6,3s1.5-0.9,2.8-2.1c1.1-1.1,2-2.5,2-2.5
	s-3.1-1.6-4.3-4c-1.3-2.4,0.2-4.9,0.2-4.9s-2.4-1-4.2-4.1c-1.9-3.3-0.7-7-0.7-7c-1.8,0.6-3.6,3.9-3.6,3.9s-4.2-2.7-10-2.5
	c-5.2-0.4-9.7-4-11.3-9.1c0,0-2.1,6.7,3.4,11.4c-0.3,0.2-0.7,0.4-1,0.6c-3,1.4-6.6,1-9.3-1.2c0,0,0.1,1,0.5,2.3
	c0.4,1.3,1.3,2.8,2.8,3.7c0.2,0.1,0.3,0.2,0.5,0.3c-0.4,0.5-0.7,1-1,1.6c-1.8,2.5-5,3.6-8,2.5c0,0,1.3,3,4.1,3.6
	c0.6,0.1,1.2,0.1,1.7-0.1c-0.1,1.2-0.2,2.3-0.1,3.4c-0.3,2.3-2,4.2-4.3,4.7c0,0,2.1,1.5,4.2,0.8c0.4-0.1,0.7-0.3,1-0.6
	c0.203,0.656,0.443,1.302,0.701,1.943c0.154,0.56,0.325,1.078,0.499,1.657c0.3,2.3-0.9,4.9-3.1,6c0,0,2.4,0.9,4.3-0.3
	c0.308-0.154,1.143-0.841,1.56-1.605c0.701,0.932,1.481,1.846,2.35,2.742c0.03,0.054,0.06,0.109,0.09,0.163c0.8,2.2,0,4.8-1.9,6.3
	c0,0,2.5,0.4,4.1-1.1c0.27-0.27,1.022-1.271,1.169-2.125c1.237,1.083,2.444,2.12,3.577,3.137c0.016,0.028,0.03,0.052,0.054,0.088
	c0.9,2.1,0.2,5.4-1.6,6.9c0,0,2.5,0.3,4-1.4c0.224-0.224,0.892-1.06,1.218-1.969c1.467,1.665,2.592,3.379,3.192,5.269
	c-0.006,0.051-0.01,0.113-0.01,0.2c-0.4,2.3-2.4,4.5-4.7,4.8c0,0,2,1.6,4.1,1c0.259-0.065,0.609-0.179,1.009-0.355
	c-0.033,0.502-0.07,0.989-0.109,1.455c5.1,1,10.5,1.6,16.1,1.9c0.4-1.5,0.6-2.6,0.8-3.3c0.3-1.7,0.7-3.8,0.4-6.4
	C44.9,96.5,44,94.2,42.9,92.2z M35.7,59.5l2.6,3.9l-4.8-2.9L35.7,59.5z"/>
<path class="st0" d="M104.8,21.6C104.8,9.671,81.385,0,52.5,0S0.2,9.671,0.2,21.6c0,11.929,23.415,21.6,52.3,21.6
	c1.306,0,2.596-0.026,3.878-0.065C56.548,53.987,46,62.8,46,62.8s20.521-6.818,21.739-20.534C89.189,39.571,104.8,31.34,104.8,21.6z
	"/>
</svg>
